<svg width="54" height="31" viewBox="0 0 54 31" fill="none" xmlns="http://www.w3.org/2000/svg">
<g clip-path="url(#clip0_11_26263)">
<path d="M33.4495 21.2022C36.91 17.8 36.91 12.284 33.4495 8.88184C29.989 5.47968 24.3784 5.47968 20.9179 8.88184C17.4574 12.284 17.4574 17.8 20.9179 21.2022C24.3784 24.6043 29.989 24.6043 33.4495 21.2022Z" fill="#AFAFAF"/>
<g clip-path="url(#clip1_11_26263)">
<path d="M26.4766 27.042C19.8491 27.042 14.4766 21.6694 14.4766 15.042C14.4766 8.41458 19.8491 3.04199 26.4766 3.04199C33.104 3.04199 38.4766 8.41458 38.4766 15.042C38.4766 21.6694 33.104 27.042 26.4766 27.042Z" fill="#D1AF90"/>
<path d="M26.4765 24.2925C21.3676 24.2925 17.226 20.1509 17.226 15.042C17.226 9.93305 21.3676 5.79144 26.4765 5.79144C31.5854 5.79144 35.7271 9.93305 35.7271 15.042C35.7271 20.1509 31.5854 24.2925 26.4765 24.2925Z" fill="#FFC001"/>
<path d="M26.4765 24.2925C21.3676 24.2925 17.226 20.1509 17.226 15.042C17.226 9.93305 21.3676 5.79144 26.4765 5.79144C31.5854 5.79144 35.7271 9.93305 35.7271 15.042C35.7271 20.1509 31.5854 24.2925 26.4765 24.2925Z" fill="#C4A283"/>
<g opacity="0.2">
<path d="M34.4189 19.888L19.1226 9.40815C20.0288 8.24191 21.2069 7.29773 22.5618 6.67026L35.7273 15.6903C35.6315 17.2194 35.1662 18.6481 34.4189 19.888Z" fill="#F0F0F0"/>
<path d="M18.3221 10.6238L33.572 21.0719C33.0105 21.7401 32.357 22.3281 31.6303 22.8161L17.3974 13.0648C17.591 12.1992 17.9054 11.3794 18.3221 10.6238Z" fill="#F0F0F0"/>
</g>
<g clip-path="url(#clip2_11_26263)">
<path d="M29.1642 14.9136C30.0669 14.5171 30.5182 13.8913 30.5182 13.0361C30.5182 12.7873 30.4752 12.5512 30.389 12.3277C30.3029 12.1042 30.1777 11.9001 30.0136 11.7155C29.8495 11.5309 29.6607 11.3783 29.4473 11.2578C29.1971 11.1139 28.914 11.0168 28.598 10.9663C28.2821 10.9157 27.9087 10.8904 27.4778 10.8904H27.4683V9.7842C27.4683 9.45618 27.1875 9.19023 26.8413 9.19023C26.495 9.19023 26.2143 9.45618 26.2143 9.7842V10.8904H24.5544C24.1645 10.8904 23.8825 10.9731 23.7081 11.1383C23.5337 11.3034 23.4465 11.5746 23.4465 11.9516V18.377C23.4465 18.7463 23.5317 19.0155 23.7019 19.1845C23.8722 19.3536 24.1564 19.4382 24.5544 19.4382H26.2143V20.448C26.2143 20.7761 26.495 21.042 26.8413 21.042C27.1875 21.042 27.4683 20.7761 27.4683 20.448V19.4343C27.8762 19.4297 28.2459 19.4106 28.5611 19.3711C28.9181 19.3264 29.234 19.2496 29.5089 19.1408C29.9479 18.9581 30.2967 18.6753 30.5552 18.2925C30.8137 17.9096 30.9429 17.4791 30.9429 17.001C30.9429 15.967 30.35 15.2712 29.1642 14.9136ZM28.241 12.4035C28.5652 12.5454 28.7272 12.8321 28.7272 13.2635C28.7272 13.4656 28.676 13.6483 28.5734 13.8116C28.4421 14.041 28.2523 14.1964 28.0041 14.278C27.8624 14.3246 27.6775 14.3542 27.4683 14.3742V12.2281C27.7843 12.2622 28.047 12.3186 28.241 12.4035ZM25.2745 12.1907H26.2143V14.4005H25.2745V12.1907ZM25.2745 18.1379V15.6424H26.2143V18.1379H25.2745ZM27.4683 18.1275V15.6543C27.9574 15.6808 28.3425 15.7713 28.6103 15.934C28.9303 16.1283 29.0904 16.4412 29.0904 16.8727C29.0904 17.6602 28.5449 18.0752 27.4683 18.1275Z" fill="#B1967E"/>
<path d="M28.6606 14.7653C29.5633 14.3689 30.0146 13.743 30.0146 12.8879C30.0146 12.6391 29.9715 12.403 29.8854 12.1795C29.7992 11.9559 29.6741 11.7519 29.5099 11.5672C29.3458 11.3826 29.1571 11.23 28.9437 11.1095C28.6934 10.9657 28.4103 10.8686 28.0943 10.818C27.7784 10.7675 27.405 10.7422 26.9742 10.7422H26.9646V9.63597C26.9646 9.30794 26.6839 9.04199 26.3376 9.04199C25.9913 9.04199 25.7106 9.30794 25.7106 9.63597V10.7422H24.0507C23.6609 10.7422 23.3788 10.8248 23.2044 10.99C23.0301 11.1552 22.9429 11.4264 22.9429 11.8034V18.2287C22.9429 18.598 23.028 18.8672 23.1983 19.0363C23.3686 19.2054 23.6527 19.29 24.0507 19.29H25.7106V20.2997C25.7106 20.6278 25.9913 20.8938 26.3376 20.8938C26.6839 20.8938 26.9646 20.6278 26.9646 20.2997V19.286C27.3726 19.2814 27.7422 19.2624 28.0574 19.2229C28.4144 19.1782 28.7303 19.1014 29.0052 18.9926C29.4443 18.8099 29.793 18.5271 30.0515 18.1442C30.31 17.7613 30.4393 17.3309 30.4393 16.8527C30.4393 15.8188 29.8464 15.123 28.6606 14.7653ZM27.7374 12.2553C28.0615 12.3971 28.2236 12.6838 28.2236 13.1153C28.2236 13.3174 28.1723 13.5001 28.0697 13.6634C27.9384 13.8927 27.7486 14.0482 27.5004 14.1298C27.3587 14.1764 27.1738 14.206 26.9646 14.226V12.0799C27.2807 12.114 27.5433 12.1703 27.7374 12.2553ZM24.7708 12.0424H25.7106V14.2523H24.7708V12.0424ZM24.7708 17.9897V15.4942H25.7106V17.9897H24.7708ZM26.9646 17.9792V15.5061C27.4537 15.5326 27.8388 15.6231 28.1066 15.7857C28.4267 15.9801 28.5867 16.293 28.5867 16.7244C28.5867 17.512 28.0412 17.927 26.9646 17.9792Z" fill="#FFEBD8"/>
</g>
</g>
</g>
<defs>
<clipPath id="clip0_11_26263">
<rect width="53" height="30" fill="white" transform="translate(0.683838 0.0419922)"/>
</clipPath>
<clipPath id="clip1_11_26263">
<rect width="24" height="24" fill="white" transform="matrix(-1 0 0 1 38.4766 3.04199)"/>
</clipPath>
<clipPath id="clip2_11_26263">
<rect width="8" height="12" fill="white" transform="translate(22.9429 9.04199)"/>
</clipPath>
</defs>
</svg>
