<svg width="54" height="30" viewBox="0 0 54 30" fill="none" xmlns="http://www.w3.org/2000/svg">
<g clip-path="url(#clip0_11_26214)">
<path d="M33.4495 21.1602C36.91 17.758 36.91 12.242 33.4495 8.83987C29.989 5.4377 24.3784 5.4377 20.9179 8.83987C17.4574 12.242 17.4574 17.758 20.9179 21.1602C24.3784 24.5624 29.989 24.5624 33.4495 21.1602Z" fill="#AFAFAF"/>
<g clip-path="url(#clip1_11_26214)">
<path d="M26.6838 30.042C18.3996 30.042 11.6838 23.3263 11.6838 15.042C11.6838 6.75772 18.3996 0.0419922 26.6838 0.0419922C34.9681 0.0419922 41.6838 6.75772 41.6838 15.042C41.6838 23.3263 34.9681 30.042 26.6838 30.042Z" fill="#D0D0D0"/>
<path d="M26.6839 26.6052C20.2977 26.6052 15.1207 21.4282 15.1207 15.042C15.1207 8.65583 20.2977 3.47882 26.6839 3.47882C33.0701 3.47882 38.2471 8.65583 38.2471 15.042C38.2471 21.4282 33.0701 26.6052 26.6839 26.6052Z" fill="#FFC001"/>
<path d="M26.6839 26.6052C20.2977 26.6052 15.1207 21.4282 15.1207 15.042C15.1207 8.65583 20.2977 3.47882 26.6839 3.47882C33.0701 3.47882 38.2471 8.65583 38.2471 15.042C38.2471 21.4282 33.0701 26.6052 26.6839 26.6052Z" fill="#E0C280"/>
<g opacity="0.2">
<path d="M36.6116 21.0996L17.4912 7.9997C18.624 6.54189 20.0966 5.36167 21.7902 4.57733L38.2471 15.8524C38.1274 17.7637 37.5457 19.5497 36.6116 21.0996Z" fill="#F0DDB3"/>
<path d="M16.4906 9.51926L35.553 22.5794C34.8511 23.4146 34.0341 24.1497 33.1259 24.7596L15.3347 12.5705C15.5768 11.4886 15.9697 10.4638 16.4906 9.51926Z" fill="#F0DDB3"/>
</g>
<g clip-path="url(#clip2_11_26214)">
<path d="M29.7765 15.3395C30.9049 14.8439 31.469 14.0616 31.469 12.9927C31.469 12.6817 31.4152 12.3865 31.3075 12.1071C31.1998 11.8277 31.0434 11.5726 30.8382 11.3419C30.6331 11.1111 30.3971 10.9203 30.1304 10.7697C29.8176 10.5899 29.4637 10.4685 29.0687 10.4053C28.6738 10.3422 28.2071 10.3106 27.6685 10.3106H27.6566V8.92777C27.6566 8.51773 27.3057 8.1853 26.8728 8.1853C26.4399 8.1853 26.089 8.51773 26.089 8.92777V10.3106H24.0142C23.5269 10.3106 23.1743 10.4138 22.9563 10.6203C22.7384 10.8268 22.6294 11.1658 22.6294 11.637V19.6687C22.6294 20.1304 22.7358 20.4668 22.9487 20.6782C23.1615 20.8895 23.5167 20.9953 24.0142 20.9953H26.089V22.2575C26.089 22.6676 26.44 23 26.8728 23C27.3057 23 27.6566 22.6676 27.6566 22.2575V20.9903C28.1665 20.9846 28.6285 20.9608 29.0226 20.9114C29.4688 20.8556 29.8637 20.7596 30.2073 20.6235C30.7562 20.3952 31.1921 20.0417 31.5152 19.5631C31.8383 19.0845 31.9999 18.5464 31.9999 17.9487C31.9999 16.6563 31.2588 15.7865 29.7765 15.3395ZM28.6225 12.2019C29.0277 12.3792 29.2303 12.7376 29.2303 13.2769C29.2303 13.5295 29.1662 13.7579 29.038 13.962C28.8738 14.2487 28.6366 14.443 28.3263 14.5451C28.1492 14.6033 27.9181 14.6403 27.6566 14.6653V11.9827C28.0516 12.0253 28.38 12.0957 28.6225 12.2019ZM24.9143 11.9359H26.089V14.6981H24.9143V11.9359ZM24.9143 19.3699V16.2505H26.089V19.3699H24.9143ZM27.6566 19.3568V16.2654C28.2679 16.2985 28.7493 16.4117 29.0841 16.615C29.4842 16.8579 29.6842 17.249 29.6842 17.7884C29.6842 18.7728 29.0024 19.2915 27.6566 19.3568Z" fill="#D0B372"/>
<path d="M29.1471 15.1542C30.2755 14.6586 30.8396 13.8763 30.8396 12.8074C30.8396 12.4964 30.7858 12.2012 30.6781 11.9218C30.5704 11.6424 30.414 11.3873 30.2088 11.1566C30.0037 10.9258 29.7677 10.735 29.501 10.5844C29.1882 10.4046 28.8343 10.2832 28.4393 10.22C28.0444 10.1569 27.5777 10.1253 27.0391 10.1253H27.0272V8.74247C27.0272 8.33243 26.6763 8 26.2434 8C25.8106 8 25.4596 8.33243 25.4596 8.74247V10.1253H23.3848C22.8975 10.1253 22.5449 10.2285 22.3269 10.435C22.109 10.6415 22 10.9805 22 11.4517V19.4834C22 19.9451 22.1064 20.2815 22.3193 20.4929C22.5321 20.7042 22.8873 20.81 23.3848 20.81H25.4596V22.0722C25.4596 22.4823 25.8106 22.8147 26.2434 22.8147C26.6763 22.8147 27.0272 22.4823 27.0272 22.0722V20.805C27.5371 20.7993 27.9992 20.7755 28.3932 20.7261C28.8394 20.6703 29.2343 20.5743 29.578 20.4382C30.1268 20.2099 30.5627 19.8564 30.8858 19.3778C31.2089 18.8992 31.3705 18.3611 31.3705 17.7634C31.3705 16.471 30.6294 15.6012 29.1471 15.1542ZM27.9931 12.0166C28.3983 12.1939 28.6009 12.5523 28.6009 13.0916C28.6009 13.3442 28.5368 13.5726 28.4086 13.7767C28.2445 14.0634 28.0072 14.2577 27.6969 14.3598C27.5198 14.418 27.2887 14.455 27.0272 14.48V11.7974C27.4222 11.84 27.7506 11.9104 27.9931 12.0166ZM24.2849 11.7505H25.4596V14.5128H24.2849V11.7505ZM24.2849 19.1846V16.0652H25.4596V19.1846H24.2849ZM27.0272 19.1715V16.0801C27.6385 16.1132 28.1199 16.2264 28.4547 16.4297C28.8548 16.6726 29.0548 17.0637 29.0548 17.6031C29.0548 18.5875 28.373 19.1062 27.0272 19.1715Z" fill="#FFEEC6"/>
</g>
</g>
</g>
<defs>
<clipPath id="clip0_11_26214">
<rect width="53" height="30" fill="white" transform="translate(0.683838)"/>
</clipPath>
<clipPath id="clip1_11_26214">
<rect width="30" height="30" fill="white" transform="matrix(-1 0 0 1 41.6838 0.0419922)"/>
</clipPath>
<clipPath id="clip2_11_26214">
<rect width="10" height="15" fill="white" transform="translate(22 8)"/>
</clipPath>
</defs>
</svg>
