<svg width="54" height="31" viewBox="0 0 54 31" fill="none" xmlns="http://www.w3.org/2000/svg">
<g clip-path="url(#clip0_11_26250)">
<path d="M33.4495 21.6812C36.91 18.279 36.91 12.763 33.4495 9.36085C29.989 5.95868 24.3784 5.95868 20.9179 9.36085C17.4574 12.763 17.4574 18.279 20.9179 21.6812C24.3784 25.0833 29.989 25.0833 33.4495 21.6812Z" fill="#AFAFAF"/>
<g clip-path="url(#clip1_11_26250)">
<path d="M25.6838 27.521C19.0564 27.521 13.6838 22.1484 13.6838 15.521C13.6838 8.89358 19.0564 3.521 25.6838 3.521C32.3113 3.521 37.6838 8.89358 37.6838 15.521C37.6838 22.1484 32.3113 27.521 25.6838 27.521Z" fill="#D0D0D0"/>
<path d="M25.6838 24.7715C20.5749 24.7715 16.4332 20.6299 16.4332 15.521C16.4332 10.4121 20.5749 6.27045 25.6838 6.27045C30.7927 6.27045 34.9343 10.4121 34.9343 15.521C34.9343 20.6299 30.7927 24.7715 25.6838 24.7715Z" fill="#FFC001"/>
<path d="M25.6838 24.7715C20.5749 24.7715 16.4332 20.6299 16.4332 15.521C16.4332 10.4121 20.5749 6.27045 25.6838 6.27045C30.7927 6.27045 34.9343 10.4121 34.9343 15.521C34.9343 20.6299 30.7927 24.7715 25.6838 24.7715Z" fill="#C0C0C0"/>
<g opacity="0.2">
<path d="M33.6262 20.367L18.3299 9.88716C19.2361 8.72091 20.4142 7.77674 21.7691 7.14926L34.9346 16.1693C34.8388 17.6984 34.3735 19.1271 33.6262 20.367Z" fill="#CECECE"/>
<path d="M17.5294 11.1028L32.7793 21.5509C32.2178 22.2191 31.5642 22.8071 30.8376 23.2951L16.6047 13.5438C16.7983 12.6783 17.1127 11.8584 17.5294 11.1028Z" fill="#CECECE"/>
</g>
<g clip-path="url(#clip2_11_26250)">
<path d="M28.2213 14.8716C29.124 14.4751 29.5754 13.8493 29.5754 12.9941C29.5754 12.7453 29.5323 12.5092 29.4462 12.2857C29.36 12.0622 29.2348 11.8581 29.0707 11.6735C28.9066 11.4889 28.7178 11.3363 28.5045 11.2158C28.2542 11.0719 27.9711 10.9748 27.6551 10.9243C27.3392 10.8737 26.9658 10.8485 26.535 10.8485H26.5254V9.74221C26.5254 9.41418 26.2447 9.14824 25.8984 9.14824C25.5521 9.14824 25.2714 9.41418 25.2714 9.74221V10.8485H23.6115C23.2217 10.8485 22.9396 10.9311 22.7652 11.0963C22.5909 11.2614 22.5037 11.5326 22.5037 11.9096V18.335C22.5037 18.7043 22.5888 18.9735 22.7591 19.1425C22.9294 19.3116 23.2135 19.3962 23.6115 19.3962H25.2714V20.406C25.2714 20.7341 25.5521 21 25.8984 21C26.2447 21 26.5254 20.7341 26.5254 20.406V19.3923C26.9333 19.3877 27.303 19.3686 27.6182 19.3291C27.9752 19.2844 28.2911 19.2077 28.566 19.0988C29.0051 18.9161 29.3538 18.6333 29.6123 18.2505C29.8708 17.8676 30.0001 17.4371 30.0001 16.959C30.0001 15.925 29.4072 15.2292 28.2213 14.8716ZM27.2982 12.3615C27.6223 12.5034 27.7844 12.7901 27.7844 13.2215C27.7844 13.4236 27.7331 13.6063 27.6305 13.7696C27.4992 13.999 27.3094 14.1544 27.0612 14.2361C26.9195 14.2827 26.7346 14.3122 26.5254 14.3322V12.1861C26.8415 12.2202 27.1041 12.2766 27.2982 12.3615ZM24.3316 12.1487H25.2714V14.3585H24.3316V12.1487ZM24.3316 18.0959V15.6004H25.2714V18.0959H24.3316ZM26.5254 18.0855V15.6123C27.0145 15.6388 27.3996 15.7293 27.6674 15.892C27.9875 16.0863 28.1475 16.3992 28.1475 16.8307C28.1475 17.6182 27.602 18.0332 26.5254 18.0855Z" fill="#ADADAD"/>
<path d="M27.7177 14.7233C28.6204 14.3269 29.0717 13.701 29.0717 12.8459C29.0717 12.5971 29.0287 12.361 28.9425 12.1375C28.8563 11.9139 28.7312 11.7099 28.567 11.5252C28.4029 11.3406 28.2142 11.188 28.0008 11.0675C27.7505 10.9237 27.4674 10.8266 27.1514 10.776C26.8355 10.7255 26.4621 10.7002 26.0313 10.7002H26.0217V9.59397C26.0217 9.26595 25.741 9 25.3947 9C25.0484 9 24.7677 9.26595 24.7677 9.59397V10.7002H23.1078C22.718 10.7002 22.4359 10.7828 22.2615 10.948C22.0872 11.1132 22 11.3844 22 11.7614V18.1868C22 18.556 22.0851 18.8252 22.2554 18.9943C22.4257 19.1634 22.7098 19.248 23.1078 19.248H24.7677V20.2578C24.7677 20.5858 25.0484 20.8518 25.3947 20.8518C25.741 20.8518 26.0217 20.5858 26.0217 20.2578V19.244C26.4297 19.2394 26.7993 19.2204 27.1145 19.1809C27.4715 19.1362 27.7875 19.0594 28.0624 18.9506C28.5014 18.7679 28.8502 18.4851 29.1087 18.1022C29.3671 17.7193 29.4964 17.2889 29.4964 16.8107C29.4964 15.7768 28.9035 15.081 27.7177 14.7233ZM26.7945 12.2133C27.1186 12.3551 27.2807 12.6418 27.2807 13.0733C27.2807 13.2754 27.2294 13.4581 27.1269 13.6214C26.9956 13.8507 26.8058 14.0062 26.5575 14.0878C26.4159 14.1344 26.231 14.164 26.0217 14.184V12.0379C26.3378 12.072 26.6005 12.1283 26.7945 12.2133ZM23.8279 12.0004H24.7677V14.2103H23.8279V12.0004ZM23.8279 17.9477V15.4522H24.7677V17.9477H23.8279ZM26.0217 17.9372V15.4641C26.5108 15.4906 26.896 15.5811 27.1638 15.7437C27.4838 15.9381 27.6438 16.251 27.6438 16.6824C27.6438 17.47 27.0984 17.885 26.0217 17.9372Z" fill="#EEECE9"/>
</g>
</g>
</g>
<defs>
<clipPath id="clip0_11_26250">
<rect width="53" height="30" fill="white" transform="translate(0.683838 0.520996)"/>
</clipPath>
<clipPath id="clip1_11_26250">
<rect width="24" height="24" fill="white" transform="matrix(-1 0 0 1 37.6838 3.521)"/>
</clipPath>
<clipPath id="clip2_11_26250">
<rect width="8" height="12" fill="white" transform="translate(22 9)"/>
</clipPath>
</defs>
</svg>
