<svg width="54" height="30" viewBox="0 0 54 30" fill="none" xmlns="http://www.w3.org/2000/svg">
<g clip-path="url(#clip0_15_36043)">
<path d="M33.4495 21.1602C36.91 17.758 36.91 12.242 33.4495 8.83987C29.989 5.4377 24.3784 5.4377 20.9179 8.83987C17.4574 12.242 17.4574 17.758 20.9179 21.1602C24.3784 24.5624 29.989 24.5624 33.4495 21.1602Z" fill="#AFAFAF"/>
<g clip-path="url(#clip1_15_36043)">
<path d="M26.6838 28.042C19.5041 28.042 13.6838 22.2217 13.6838 15.042C13.6838 7.86229 19.5041 2.04199 26.6838 2.04199C33.8635 2.04199 39.6838 7.86229 39.6838 15.042C39.6838 22.2217 33.8635 28.042 26.6838 28.042Z" fill="#E0C280"/>
<path d="M26.6839 25.0634C21.1492 25.0634 16.6625 20.5767 16.6625 15.042C16.6625 9.50731 21.1492 5.02057 26.6839 5.02057C32.2186 5.02057 36.7053 9.50731 36.7053 15.042C36.7053 20.5767 32.2186 25.0634 26.6839 25.0634Z" fill="#FFC001"/>
<path d="M26.6839 25.0634C21.1492 25.0634 16.6625 20.5767 16.6625 15.042C16.6625 9.50731 21.1492 5.02057 26.6839 5.02057C32.2186 5.02057 36.7053 9.50731 36.7053 15.042C36.7053 20.5767 32.2186 25.0634 26.6839 25.0634Z" fill="#D8B974"/>
<g opacity="0.2">
<path d="M35.2879 20.2919L18.7169 8.93868C19.6986 7.67525 20.9749 6.65239 22.4427 5.97263L36.7053 15.7443C36.6016 17.4008 36.0975 18.9487 35.2879 20.2919Z" fill="#F0F0F0"/>
<path d="M17.8496 10.2556L34.3704 21.5744C33.7621 22.2982 33.054 22.9353 32.2669 23.464L16.8478 12.9C17.0576 11.9624 17.3982 11.0742 17.8496 10.2556Z" fill="#F0F0F0"/>
</g>
<g clip-path="url(#clip2_15_36043)">
<path d="M29.2648 14.9029C30.1675 14.4733 30.6188 13.7954 30.6188 12.869C30.6188 12.5994 30.5758 12.3436 30.4896 12.1015C30.4035 11.8593 30.2783 11.6383 30.1142 11.4383C29.9501 11.2382 29.7613 11.0729 29.5479 10.9424C29.2977 10.7866 29.0145 10.6813 28.6986 10.6266C28.3826 10.5718 28.0093 10.5445 27.5784 10.5445H27.5688V9.34605C27.5688 8.99068 27.2881 8.70258 26.9419 8.70258C26.5956 8.70258 26.3148 8.99068 26.3148 9.34605V10.5445H24.6549C24.2651 10.5445 23.9831 10.634 23.8087 10.8129C23.6343 10.9919 23.5471 11.2856 23.5471 11.6941V18.6549C23.5471 19.055 23.6322 19.3466 23.8025 19.5297C23.9728 19.7129 24.257 19.8045 24.6549 19.8045H26.3148V20.8985C26.3148 21.2539 26.5956 21.542 26.9419 21.542C27.2881 21.542 27.5688 21.2539 27.5688 20.8985V19.8003C27.9768 19.7953 28.3464 19.7747 28.6616 19.7319C29.0186 19.6835 29.3346 19.6003 29.6095 19.4824C30.0485 19.2845 30.3973 18.9781 30.6558 18.5633C30.9143 18.1485 31.0435 17.6822 31.0435 17.1642C31.0435 16.0441 30.4506 15.2903 29.2648 14.9029ZM28.3416 12.1836C28.6658 12.3373 28.8278 12.6479 28.8278 13.1153C28.8278 13.3343 28.7766 13.5322 28.674 13.7091C28.5427 13.9575 28.3529 14.1259 28.1047 14.2144C27.963 14.2649 27.7781 14.2969 27.5689 14.3185V11.9936C27.8849 12.0305 28.1476 12.0916 28.3416 12.1836ZM25.375 11.9531H26.3148V14.347H25.375V11.9531ZM25.375 18.3959V15.6924H26.3148V18.3959H25.375ZM27.5688 18.3846V15.7053C28.058 15.734 28.4431 15.8321 28.7109 16.0083C29.0309 16.2189 29.191 16.5578 29.191 17.0252C29.191 17.8784 28.6455 18.328 27.5688 18.3846Z" fill="#CBAD6B"/>
<path d="M28.7611 14.7423C29.6638 14.3128 30.1152 13.6348 30.1152 12.7084C30.1152 12.4389 30.0721 12.183 29.986 11.9409C29.8998 11.6988 29.7746 11.4777 29.6105 11.2777C29.4464 11.0777 29.2576 10.9123 29.0443 10.7818C28.794 10.626 28.5109 10.5208 28.1949 10.466C27.879 10.4113 27.5056 10.3839 27.0748 10.3839H27.0652V9.18546C27.0652 8.8301 26.7845 8.54199 26.4382 8.54199C26.0919 8.54199 25.8112 8.8301 25.8112 9.18546V10.3839H24.1513C23.7615 10.3839 23.4794 10.4734 23.305 10.6524C23.1307 10.8313 23.0435 11.125 23.0435 11.5335V18.4943C23.0435 18.8944 23.1286 19.186 23.2989 19.3691C23.4691 19.5523 23.7533 19.644 24.1513 19.644H25.8112V20.7379C25.8112 21.0933 26.0919 21.3814 26.4382 21.3814C26.7845 21.3814 27.0652 21.0933 27.0652 20.7379V19.6397C27.4731 19.6347 27.8428 19.6141 28.158 19.5713C28.515 19.5229 28.8309 19.4397 29.1058 19.3218C29.5449 19.1239 29.8936 18.8175 30.1521 18.4027C30.4106 17.9879 30.5399 17.5216 30.5399 17.0036C30.5399 15.8835 29.947 15.1297 28.7611 14.7423ZM27.838 12.023C28.1621 12.1767 28.3242 12.4873 28.3242 12.9547C28.3242 13.1737 28.2729 13.3716 28.1703 13.5485C28.039 13.7969 27.8492 13.9654 27.601 14.0538C27.4593 14.1043 27.2744 14.1363 27.0652 14.158V11.833C27.3813 11.87 27.6439 11.931 27.838 12.023ZM24.8714 11.7925H25.8112V14.1864H24.8714V11.7925ZM24.8714 18.2353V15.5318H25.8112V18.2353H24.8714ZM27.0652 18.224V15.5447C27.5543 15.5734 27.9394 15.6715 28.2072 15.8477C28.5273 16.0583 28.6873 16.3972 28.6873 16.8646C28.6873 17.7178 28.1418 18.1674 27.0652 18.224Z" fill="#FBEBC9"/>
</g>
</g>
</g>
<defs>
<clipPath id="clip0_15_36043">
<rect width="53" height="30" fill="white" transform="translate(0.683838)"/>
</clipPath>
<clipPath id="clip1_15_36043">
<rect width="26" height="26" fill="white" transform="matrix(-1 0 0 1 39.6838 2.04199)"/>
</clipPath>
<clipPath id="clip2_15_36043">
<rect width="8" height="13" fill="white" transform="translate(23.0435 8.54199)"/>
</clipPath>
</defs>
</svg>
