<svg width="32" height="33" viewBox="0 0 32 33" fill="none" xmlns="http://www.w3.org/2000/svg">
<path d="M11.7466 3.16675L6.91992 8.00675" stroke="#868686" stroke-width="1.5" stroke-miterlimit="10" stroke-linecap="round" stroke-linejoin="round"/>
<path d="M20.2534 3.16675L25.0801 8.00675" stroke="#868686" stroke-width="1.5" stroke-miterlimit="10" stroke-linecap="round" stroke-linejoin="round"/>
<path d="M2.66675 10.9667C2.66675 8.50005 3.98675 8.30005 5.62675 8.30005H26.3734C28.0134 8.30005 29.3334 8.50005 29.3334 10.9667C29.3334 13.8334 28.0134 13.6334 26.3734 13.6334H5.62675C3.98675 13.6334 2.66675 13.8334 2.66675 10.9667Z" stroke="#868686" stroke-width="1.5"/>
<path d="M13.0134 19.1667V23.9001" stroke="#868686" stroke-width="1.5" stroke-linecap="round"/>
<path d="M19.1467 19.1667V23.9001" stroke="#868686" stroke-width="1.5" stroke-linecap="round"/>
<path d="M4.66675 13.8333L6.54675 25.3533C6.97341 27.9399 8.00008 29.8333 11.8134 29.8333H19.8534C24.0001 29.8333 24.6134 28.0199 25.0934 25.5133L27.3334 13.8333" stroke="#868686" stroke-width="1.5" stroke-linecap="round"/>
</svg>
