<svg width="17" height="16" viewBox="0 0 17 16" fill="none" xmlns="http://www.w3.org/2000/svg">
<path d="M1.83337 1.33325H2.99338C3.71338 1.33325 4.28004 1.95325 4.22004 2.66659L3.66671 9.30658C3.57337 10.3932 4.43337 11.3266 5.5267 11.3266H12.6267C13.5867 11.3266 14.4267 10.5399 14.5 9.58659L14.86 4.58659C14.94 3.47992 14.1 2.57992 12.9867 2.57992H4.38005" stroke="white" stroke-width="1.5" stroke-miterlimit="10" stroke-linecap="round" stroke-linejoin="round"/>
<path d="M11.3333 14.6667C11.7936 14.6667 12.1667 14.2936 12.1667 13.8333C12.1667 13.3731 11.7936 13 11.3333 13C10.8731 13 10.5 13.3731 10.5 13.8333C10.5 14.2936 10.8731 14.6667 11.3333 14.6667Z" stroke="white" stroke-width="1.5" stroke-miterlimit="10" stroke-linecap="round" stroke-linejoin="round"/>
<path d="M5.99996 14.6667C6.4602 14.6667 6.83329 14.2936 6.83329 13.8333C6.83329 13.3731 6.4602 13 5.99996 13C5.53972 13 5.16663 13.3731 5.16663 13.8333C5.16663 14.2936 5.53972 14.6667 5.99996 14.6667Z" stroke="white" stroke-width="1.5" stroke-miterlimit="10" stroke-linecap="round" stroke-linejoin="round"/>
</svg>
